<svg xmlns="http://www.w3.org/2000/svg" xmlns:xlink="http://www.w3.org/1999/xlink" xmlns:inkscape="http://www.inkscape.org/namespaces/inkscape" version="1.1" width="32" height="32" viewBox="0 0 32 32">
<path transform="matrix(1,0,0,-1,0,32)" d="M0 32H32V0H0V32Z" fill="#ffffff"/>
<path transform="matrix(1,0,0,-1,0,13.272728)" d="M0-2.727271ZM.745739 9.883171V12.545458H13.289063V9.883171H8.613282V-2.727271H5.421521V9.883171H.745739Z" fill="#3043f4"/>
<text xml:space="preserve" transform="matrix(1 0 -0 1 0 13.272728)" font-size="21.000002" font-family="Type3 (10 0 R)"><tspan y="2.727271" x="0">T</tspan></text>
<path transform="matrix(1,0,0,-1,0,9.827415)" d="M11.526212-6.172584ZM17.969395-6.396306C16.811015-6.396306 15.809237-6.150212 14.964067-5.658025 14.123868-5.160865 13.475076-4.469813 13.017689-3.58487 12.560303-2.694956 12.33161-1.66335 12.33161-.490054 12.33161 .693184 12.560303 1.727275 13.017689 2.612219 13.475076 3.502133 14.123868 4.193185 14.964067 4.685373 15.809237 5.182531 16.811015 5.43111 17.969395 5.43111 19.127776 5.43111 20.127064 5.182531 20.967265 4.685373 21.812436 4.193185 22.463713 3.502133 22.921099 2.612219 23.378487 1.727275 23.60718 .693184 23.60718-.490054 23.60718-1.66335 23.378487-2.694956 22.921099-3.58487 22.463713-4.469813 21.812436-5.160865 20.967265-5.658025 20.127064-6.150212 19.127776-6.396306 17.969395-6.396306ZM17.984309-3.935368C18.511298-3.935368 18.951283-3.78622 19.304266-3.487925 19.65725-3.184657 19.92323-2.772016 20.102208-2.249998 20.286156-1.727981 20.37813-1.133876 20.37813-.467683 20.37813 .198511 20.286156 .792616 20.102208 1.314633 19.92323 1.836651 19.65725 2.249292 19.304266 2.55256 18.951283 2.855827 18.511298 3.007461 17.984309 3.007461 17.452349 3.007461 17.004906 2.855827 16.64198 2.55256 16.284026 2.249292 16.013073 1.836651 15.829124 1.314633 15.650147 .792616 15.560658 .198511 15.560658-.467683 15.560658-1.133876 15.650147-1.727981 15.829124-2.249998 16.013073-2.772016 16.284026-3.184657 16.64198-3.487925 17.004906-3.78622 17.452349-3.935368 17.984309-3.935368Z"/>
<text xml:space="preserve" transform="matrix(1 0 -0 1 0 9.827415)" font-size="21.000002" font-family="Type3 (10 0 R)"><tspan y="6.172584" x="11.526212">o</tspan></text>
<path transform="matrix(1,0,0,-1,5.333333,28.83066)" d="M0-2.16934ZM6.546346-2.16934H1.288993V12.66132H6.589795C8.081551 12.66132 9.365716 12.364416 10.44229 11.770611 11.518866 11.181633 12.346814 10.334373 12.926137 9.228832 13.510287 8.123292 13.802362 6.800506 13.802362 5.260472 13.802362 3.715612 13.510287 2.387999 12.926137 1.27763 12.346814 .167261 11.514037-.684826 10.427807-1.278631 9.346405-1.872437 8.052585-2.16934 6.546346-2.16934ZM4.424577 .517268H6.415998C7.342915 .517268 8.122586 .68141 8.755013 1.009693 9.392268 1.342803 9.87021 1.856952 10.188837 2.552139 10.512292 3.252154 10.67402 4.154932 10.67402 5.260472 10.67402 6.356359 10.512292 7.251894 10.188837 7.947081 9.87021 8.642269 9.394682 9.154004 8.762255 9.482286 8.129827 9.81057 7.350156 9.97471 6.42324 9.97471H4.424577V.517268Z" fill="#3043f4"/>
<text xml:space="preserve" transform="matrix(1 0 -0 1 5.333333 28.83066)" font-size="20.392157" font-family="Type3 (10 0 R)"><tspan y="2.16934" x="0">D</tspan></text>
<path transform="matrix(1,0,0,-1,5.333333,25.485072)" d="M14.020404-5.514929ZM20.277089-5.732174C19.152237-5.732174 18.179459-5.493204 17.358752-5.015263 16.542872-4.532494 15.912858-3.861445 15.468711-3.002117 15.024563-2.13796 14.802489-1.136215 14.802489 .003119 14.802489 1.152109 15.024563 2.156269 15.468711 3.015597 15.912858 3.879754 16.542872 4.550802 17.358752 5.028744 18.179459 5.511512 19.152237 5.752896 20.277089 5.752896 21.40194 5.752896 22.372305 5.511512 23.188185 5.028744 24.008893 4.550802 24.64132 3.879754 25.085467 3.015597 25.529614 2.156269 25.751688 1.152109 25.751688 .003119 25.751688-1.136215 25.529614-2.13796 25.085467-3.002117 24.64132-3.861445 24.008893-4.532494 23.188185-5.015263 22.372305-5.493204 21.40194-5.732174 20.277089-5.732174ZM20.29157-3.342469C20.803307-3.342469 21.230557-3.197639 21.573323-2.907977 21.916089-2.613488 22.17437-2.21279 22.348168-1.705882 22.526793-1.198975 22.616105-.622066 22.616105 .024844 22.616105 .671754 22.526793 1.248663 22.348168 1.75557 22.17437 2.262478 21.916089 2.663176 21.573323 2.957664 21.230557 3.252154 20.803307 3.399399 20.29157 3.399399 19.77501 3.399399 19.340517 3.252154 18.988097 2.957664 18.640503 2.663176 18.377394 2.262478 18.198769 1.75557 18.024973 1.248663 17.938075 .671754 17.938075 .024844 17.938075-.622066 18.024973-1.198975 18.198769-1.705882 18.377394-2.21279 18.640503-2.613488 18.988097-2.907977 19.340517-3.197639 19.77501-3.342469 20.29157-3.342469Z"/>
<text xml:space="preserve" transform="matrix(1 0 -0 1 5.333333 25.485072)" font-size="20.392157" font-family="Type3 (10 0 R)"><tspan y="5.514929" x="14.020404">o</tspan></text>
</svg>
